<?xml version="1.0" encoding="utf-8"?>
<!-- Generator: Adobe Illustrator 22.0.1, SVG Export Plug-In . SVG Version: 6.00 Build 0)  -->
<svg version="1.1" id="Layer_1" xmlns="http://www.w3.org/2000/svg" xmlns:xlink="http://www.w3.org/1999/xlink" x="0px" y="0px"
	 viewBox="0 0 1366 278.8" style="enable-background:new 0 0 1366 278.8;" xml:space="preserve">
<style type="text/css">
	.st0{fill:#2C95D2;}
</style>
<g>
	<path class="st0" d="M1153.5,229.5c6.5,0,11.8,5.3,11.8,11.7c0,6.5-5.3,11.8-11.8,11.8c-6.5,0-11.8-5.3-11.8-11.8
		C1141.7,234.7,1147,229.5,1153.5,229.5"/>
	<path class="st0" d="M408.5,112.9v140h-15.2v-140h-27.9V99.7h27.9V72.5c0-15.3,4.3-27.5,13-36.6c8.7-9.1,20.5-13.8,35.3-13.8
		c8.4,0,16.4,1.6,24.2,5l-4.6,12.8c-5.3-2.8-11.5-4.1-18.3-4.1c-10.5,0-18.9,3.4-24.8,10c-5.9,6.6-9,15.7-9,26.9v26.9h59.8v13.2
		L408.5,112.9z"/>
	<path class="st0" d="M548.9,242.6c18.3,0,33.8-6,46.1-18.5c12.4-12.5,18.6-28.5,18.6-47.6c0-19.1-6.2-35.1-18.6-47.6
		c-12.4-12.5-27.9-18.8-46.1-18.8c-18.3,0-33.8,6.3-46.1,18.8c-12.4,12.5-18.6,28.5-18.6,47.6c0,19.1,6.2,34.8,18.6,47.3
		C515.2,236.3,530.7,242.6,548.9,242.6 M605.6,118.9c15.2,15,22.9,34.1,22.9,57s-7.7,42-22.9,57.3c-15.2,15.3-34.1,22.8-56.7,22.8
		c-22.6,0-41.5-7.5-56.7-22.8c-15.2-15.4-22.9-34.5-22.9-57.3s7.8-42,22.9-57c15.2-15,34.1-22.5,56.7-22.5
		C571.5,96.3,590.4,103.9,605.6,118.9"/>
	<path class="st0" d="M782.4,252.6h-15.2V220c-5.9,11.6-14.2,20.4-24.8,26.6c-10.5,6.3-22.9,9.4-36.8,9.4c-18.3,0-33.1-6-44.3-18.2
		c-11.1-12.2-16.7-28.2-16.7-47.9V99.7h14.9v88c0,16,4.3,28.8,13,38.8c8.7,10,20.4,15,35,15c18.3,0,32.8-5.9,43.7-17.8
		c10.8-11.9,16.4-27.9,16.4-48.2V99.4h14.9L782.4,252.6z"/>
	<path class="st0" d="M884.2,96c18.3,0,32.5,5,43.7,17.2c11.2,12.2,16.7,28.2,16.7,47.9v91.8h-15.2v-89.6c0-16-4.3-28.8-13-38.5
		c-8.7-9.7-20.1-14.7-34.4-14.7c-18.2,0-32.8,6-43.7,17.9c-10.8,11.9-16.4,27.9-16.4,48.2v76.7h-15.2V99.7H822v32.6
		C834.4,108.2,855.1,96,884.2,96"/>
	<path class="st0" d="M1039.9,242.7c16.9,0,31.6-5.9,44.2-18c12.6-12.1,18.7-27.9,18.7-47.5c0-19.6-6.1-35.4-18.7-47.5
		c-12.6-12.1-27.3-18.3-44.2-18.3c-17.5,0-32.2,5.9-44.5,18c-12.3,12.1-18.4,27.9-18.4,47.5c0,19.9,6.2,35.7,18.1,47.8
		C1007.1,236.8,1022.1,242.7,1039.9,242.7 M1117.9,252.9h-15v-32.6c-6.4,11.5-15.3,20.2-26.7,26.4c-11.4,6.2-24,9.3-37.8,9.3
		c-21.2,0-39-7.5-53.7-22c-14.7-14.6-22.1-33.8-22.1-57.4c0-23.3,7.4-42.5,22.1-57.4c14.7-14.9,32.5-22.4,53.7-22.4
		c13.8,0,26.4,3.1,37.8,9.3c11.4,6.2,20.3,14.9,26.7,26.4v-104h15V252.9z"/>
	<rect x="1187.6" y="99.7" class="st0" width="14.9" height="153.1"/>
	<path class="st0" d="M1334,243.8c-10.5,8.1-21.7,12.2-33.1,12.2c-13.6,0-24.5-4.1-32.8-12.2c-8.4-8.2-12.4-19.8-12.4-34.5v-96.8
		h-33.1V99.4h33.1V49h15.2v50.4h56.7v13.2h-56.7v95.8c0,10.3,2.8,18.5,8.4,24.4c5.6,5.9,13,8.8,22.3,8.8c9.6,0,18.3-3.4,26.3-10.3
		L1334,243.8z"/>
	<path class="st0" d="M187.8,173l42.8,43.5c11.4,11.6,26.6,18,42.7,18c16.1,0,31.3-6.4,42.7-18c23.6-24,23.6-63,0-87
		c-11.4-11.6-26.6-18-42.7-18c-16.1,0-31.3,6.4-42.7,18L187.8,173z M273.3,256.1c-21.8,0-42.4-8.6-57.8-24.3L157.8,173l57.7-58.7
		c15.4-15.7,36-24.3,57.8-24.3c21.8,0,42.4,8.6,57.8,24.3c31.8,32.4,31.8,85,0,117.4C315.6,247.4,295.1,256.1,273.3,256.1"/>
	<path class="st0" d="M116.2,256.1c-21.8,0-42.4-8.6-57.8-24.3c-31.8-32.4-31.8-85,0-117.4C73.8,98.6,94.3,90,116.2,90
		c21.8,0,42.4,8.6,57.8,24.3l2.7,2.8l-15.1,15.2l-2.7-2.8c-11.4-11.6-26.6-18-42.7-18c-16.1,0-31.3,6.4-42.7,18
		c-23.6,24-23.6,63,0,87c11.4,11.6,26.6,18,42.7,18c16.1,0,31.3-6.4,42.7-18l2.7-2.8l15.1,15.2l-2.7,2.8
		C158.5,247.4,138,256.1,116.2,256.1"/>
	<path class="st0" d="M1195,40.9c6.5,0,11.8,5.3,11.8,11.8c0,6.5-5.3,11.8-11.8,11.8c-6.5,0-11.8-5.3-11.8-11.8
		C1183.2,46.1,1188.5,40.9,1195,40.9"/>
</g>
</svg>
